<?xml version="1.0" encoding="UTF-8"?><svg version="1.1" xmlns="http://www.w3.org/2000/svg" xmlns:xlink="http://www.w3.org/1999/xlink" viewBox="0 0 1600 1200" width="1600" height="1200" x="0px" y="0px">
    
    
    <!-- ITEM 0 -->
    <g>
        <defs>
            <clipPath id="clip-path-id-viewbox-item-0">
                <rect x="0.0" y="0.0" width="1011.092" height="192.904"/>
            </clipPath>
        </defs>
        <g transform="translate(-30.0 1047.0) rotate(-6.902283863091169 848.5 161.5) scale(1.6783833716417498 1.674407995686974)">
            <g clip-path="url(#clip-path-id-viewbox-item-0)" transform="translate(-0.0 -0.0)">
                
<g>
	<polygon style="fill:#DBD8D3;" points="0,192.904 1011.092,192.904 1011.092,0 0,21.569  "/>
</g>

            </g>
        </g>
    </g>
    
    <!-- ITEM 1 -->
    <g>
        <defs>
            <clipPath id="clip-path-id-crop-item-1">
                
          <rect transform="scale(0.5323667481662592 0.5318279569892473)" x="1.0" y="0.0" width="405.0" height="651.0"/>
        
            </clipPath>
            
            <clipPath id="clip-path-id-viewbox-item-1">
                <rect x="0.0" y="0.0" width="217.738" height="346.22"/>
            </clipPath>
        </defs>
        <g clip-path="url(#clip-path-id-crop-item-1)" transform="translate(1510.0 343.0) rotate(-8.957326328118395 -204.5 325.5) scale(-1.8784043207892054 1.8803073190456934)">
            <g clip-path="url(#clip-path-id-viewbox-item-1)" transform="translate(-0.0 -0.0)">
                <g id="Слой_2-i0" data-name="Слой 2"><g id="Слой_3-i0" data-name="Слой 3"><polygon points="188.166 326.825 171.421 337.529 83.818 206.812 102.235 159.486 188.166 326.825" fill="#010101"/><polygon points="87.665 26.165 85.251 48.13 100.939 44.755 95.251 22.204 87.665 26.165" fill="#939498"/><path d="M90.971,1.152c-7.852.578-10.93,3.616-8.883,14,1.765,8.956,8.058,9.986,8.058,9.986A22.814,22.814,0,0,0,108.5,37.5s-.63-3.45-1.407-7.72a7.734,7.734,0,0,1-6.06-3.4,9.357,9.357,0,0,0,5.535.513C105.524,21.148,104.411,15,104.23,13.9,102.382,2.657,95.97.784,90.971,1.152Z" fill="#dbd8d3"/><polygon points="79.881 55.737 82.599 46.342 104.198 42.407 103.338 57.41 79.881 55.737" fill="#e33b2b"/><path d="M103.533,53.387s-33.04-6.2-43.5,22.859c-13.974,38.81,10.908,83.24,10.908,83.24h31.4Z" fill="#8e231d"/><polygon points="101.948 6.873 110.339 22.128 104.056 22.576 101.948 6.873" fill="#dbd8d3"/><path d="M101.29,5.564A12.32,12.32,0,0,0,79.34,16.335,11.651,11.651,0,0,0,85.583,23.1s8.644-1.657,7.867-14.134a15.905,15.905,0,0,0,7.768-3.259C101.26,5.674,101.264,5.611,101.29,5.564Z" fill="#010101"/><circle cx="87.186" cy="22.698" r="5.189" fill="#dbd8d3"/><rect x="97.801" y="13.785" width="3.775" height="1.208" transform="translate(-0.812 7.717) rotate(-4.415)" fill="#010101"/><path d="M166.582,70.158c-1.423,2.521-24.781,18.821-32.555,44.3l16.762,8.728L173.8,70.694Z" fill="#dbd8d3"/><path d="M73.076,68.219s-9.806,20.646,8.547,36.769c28.718,25.226,69.161,18.2,69.166,18.2Z" fill="#e33b2b"/><circle cx="172.442" cy="62.521" r="10.493" fill="#dbd8d3"/><polygon points="171.421 337.529 176.976 346.22 217.738 319.212 188.166 326.825 171.421 337.529" fill="#8e231d"/><path d="M102.235,159.486l2.736,112.175L19.416,336.006H0s36.76-71.356,78.274-77.289c0,0-31.192-69.838-7.867-99.231Z" fill="#e33b2b"/><polygon points="0 336.006 0 346.22 47.056 346.22 19.416 336.006 0 336.006" fill="#8e231d"/><line x1="70.483" y1="159.486" x2="102.235" y2="159.486" fill="none" stroke="#010101" stroke-miterlimit="10"/></g></g>
            </g>
        </g>
    </g>
    
    <!-- ITEM 2 -->
    <g>
        <defs>
            <clipPath id="clip-path-id-viewbox-item-2">
                <rect x="0.0" y="0.0" width="0.0" height="0.0"/>
            </clipPath>
        </defs>
        <g transform="translate(0.0 0.0) rotate(0.0 0.5 0.5) scale(Infinity Infinity)">
            <g clip-path="url(#clip-path-id-viewbox-item-2)" transform="translate(-0.0 -0.0)">
                
            </g>
        </g>
    </g>
    
    <!-- ITEM 3 -->
    <g>
        <defs>
            <clipPath id="clip-path-id-viewbox-item-3">
                <rect x="0.0" y="0.0" width="36.003" height="59.944"/>
            </clipPath>
        </defs>
        <g transform="translate(1168.0 427.0) rotate(-8.957326328118395 -16.5 27.0) scale(-0.916590284142988 0.9008407847324169)">
            <g clip-path="url(#clip-path-id-viewbox-item-3)" transform="translate(-0.0 -0.0)">
                

<g>
	<polygon points="32.634,59.944 3.37,59.944 2.98,57.608 33.024,57.608  " style="fill:#939598;"/>
	<path d="M36.003,9.353v45.061c0,1.822-1.477,3.298-3.298,3.298H3.298C1.477,57.712,0,56.236,0,54.414V9.337   c0-0.475,0.132-0.941,0.382-1.346L3.39,3.116V1.374h29.224v1.742l0.148,0.377l2.844,4.488C35.865,8.392,36.003,8.868,36.003,9.353z   " style="fill:#E23D2C;"/>
	<path d="M28.993,30.755c1.115,4.28,2.399,8.384,2.138,12.812c-0.289,4.922-1.559,9.821-3.876,14.146h-5.968   c1.187-1.574,2.25-3.239,3.175-4.993c0.78-1.48,1.456-3.022,2.003-4.606c0.706-2.716,1.108-5.506,1.177-8.329   c0.099-4.137-0.624-8.119-1.626-12.115c-0.97-3.873-2.067-7.773-2.245-11.787c-0.205-4.616,1.078-9.745,4.33-13.095   c0.444-0.501,0.918-0.972,1.421-1.414h3.091v1.742c0,0-1.765,1.952-3.073,4.561c-1.141,2.276-1.822,5.092-2.125,7.049   c-0.595,3.831-0.454,8.198,0.421,11.913C28.254,28.141,28.603,29.265,28.993,30.755z" style="fill:#DCD9D3;"/>
	<rect x="3.07" width="29.863" height="1.374" style="fill:#939598;"/>
</g>

            </g>
        </g>
    </g>
    
    <!-- ITEM 4 -->
    <g>
        <defs>
            <clipPath id="clip-path-id-viewbox-item-4">
                <rect x="0.0" y="0.0" width="44.702" height="19.472"/>
            </clipPath>
        </defs>
        <g transform="translate(1327.0 321.0) rotate(24.45495630062669 -40.5 17.5) scale(-1.8119994631112704 1.797452752670501)">
            <g clip-path="url(#clip-path-id-viewbox-item-4)" transform="translate(-0.0 -0.0)">
                <g id="Слой_2-i2" data-name="Слой 2"><g id="Слой_3-i2" data-name="Слой 3"><path d="M14.505,0h0A14.505,14.505,0,0,1,29.01,14.505v3.553a0,0,0,0,1,0,0H0a0,0,0,0,1,0,0V14.505A14.505,14.505,0,0,1,14.505,0Z" fill="#fdbc42"/><rect y="17.378" width="44.702" height="2.093" fill="#fdbc42"/></g></g>
            </g>
        </g>
    </g>
    
    <!-- ITEM 5 -->
    <g>
        <defs>
            <clipPath id="clip-path-id-viewbox-item-5">
                <rect x="0.0" y="0.0" width="55.485" height="49.808"/>
            </clipPath>
        </defs>
        <g transform="translate(1128.0 462.0) rotate(23.871141086510082 36.5 32.5) scale(1.315670902045598 1.3050112431737872)">
            <g clip-path="url(#clip-path-id-viewbox-item-5)" transform="translate(-0.0 -0.0)">
                

<g>
	<path d="M50.562,23.642l-16.882-5.16c0.038-1.617-0.131-3.264-0.551-4.906C30.764,4.331,21.676-1.161,12.83,1.311   C3.983,3.783-1.27,13.282,1.095,22.527s11.453,14.737,20.299,12.265c0.884-0.247,1.722-0.582,2.531-0.963L40.45,46.403   L50.562,23.642z" style="fill:#FCBC41;"/>
	<path d="M55.485,23.494L43.406,49.808l-4.266-2.139c-0.813-0.408-1.156-1.427-0.766-2.276l10.667-23.238   c0.39-0.85,1.365-1.208,2.178-0.8L55.485,23.494z" style="fill:#939598;"/>
</g>

            </g>
        </g>
    </g>
    
    <!-- ITEM 6 -->
    <g>
        <defs>
            <clipPath id="clip-path-id-viewbox-item-6">
                <rect x="0.0" y="0.0" width="41.965" height="82.094"/>
            </clipPath>
        </defs>
        <g transform="translate(908.0 631.0) rotate(33.550432161561034 -40.5 82.0) scale(-1.930179911831288 1.9977099422613103)">
            <g clip-path="url(#clip-path-id-viewbox-item-6)" transform="translate(-0.0 -0.0)">
                

<g>
	<path d="M36.871,2.179l-0.01-1.437C36.858,0.329,36.521-0.003,36.108,0l-8.444,0.062   c-0.894,0.007-1.681,0.589-1.949,1.441L19.52,21.181l3.305,1.04l6.056-19.237l7.248-0.053C36.542,2.928,36.874,2.591,36.871,2.179z   " style="fill:#FDBB3F;"/>
	<path d="M38.913,27.797c-0.104-8.221-8.09-14.859-17.931-14.859S3.155,19.577,3.052,27.797   C1.322,28.077,0,29.573,0,31.381v3.523h41.965v-3.523C41.965,29.573,40.643,28.077,38.913,27.797z" style="fill:#DCD9D3;"/>
	<polygon points="38.758,34.939 37.567,46.36 35.485,66.285 33.834,82.094 8.551,82.094 6.901,66.285 4.819,46.36    3.624,34.939  " style="fill:#FDBB3F;"/>
</g>

            </g>
        </g>
    </g>
    
    <!-- ITEM 7 -->
    <g>
        <defs>
            <clipPath id="clip-path-id-viewbox-item-7">
                <rect x="0.0" y="0.0" width="1009.341" height="190.577"/>
            </clipPath>
        </defs>
        <g transform="translate(-17.0 1419.0) rotate(0.0 822.0 -155.0) scale(1.6287855145089716 -1.6266391012556605)">
            <g clip-path="url(#clip-path-id-viewbox-item-7)" transform="translate(-0.0 -0.0)">
                
<g>
	<path style="fill:#FDBC42;" d="M717.05,30.651c2.711-4.862,7.152-9.192,7.152-9.192l-9.201,4.904V13.755l-6.756,12.607L693.611,0   l7.925,24.485c-5.608-4.119-15.85-9.629-15.85-9.629c7.11,7.282,11.104,12.428,13.353,15.905l-286.253,1.75l5.491-10.752   l-9.191,7.104l-1.277-11.189l-4.085,12.255l-7.149-18.638l2.553,19.532l-9.191-5.745c0,0,4.768,4.103,6.706,7.532L0,35.036v155.542   h1009.341V28.863L717.05,30.651z"/>
</g>

            </g>
        </g>
    </g>
    
    <!-- ITEM 8 -->
    <g>
        <defs>
            <clipPath id="clip-path-id-crop-item-8">
                
          <rect transform="scale(0.744955223880597 0.7353791208791208)" x="15.0" y="0.0" width="51.0" height="182.0"/>
        
            </clipPath>
            
            <clipPath id="clip-path-id-viewbox-item-8">
                <rect x="0.0" y="0.0" width="49.912" height="133.839"/>
            </clipPath>
        </defs>
        <g clip-path="url(#clip-path-id-crop-item-8)" transform="translate(320.0 1017.0) rotate(-89.99999999999987 33.5 91.0) scale(1.34236255810226 1.359842796195429)">
            <g clip-path="url(#clip-path-id-viewbox-item-8)" transform="translate(-0.0 -0.0)">
                

<g>
	<path d="M49.912,73.254v56.268c0,2.382-1.788,4.316-3.991,4.316H3.991c-2.203,0-3.991-1.934-3.991-4.316V73.254   c0-3.588,0.155-7.167,0.46-10.726C1.384,51.86,3.681,41.366,7.301,31.352l5.4-14.936c0.798-2.207,1.209-4.557,1.213-6.927   l0.008-7.582h22.067l0.008,7.582c0.004,2.37,0.415,4.72,1.213,6.927l5.4,14.936c3.62,10.013,5.917,20.507,6.837,31.176   C49.757,66.088,49.912,69.667,49.912,73.254z" style="fill:#939598;"/>
	<path d="M35.181,3.852h-20.18c-1.064,0-1.926-0.862-1.926-1.926v0C13.075,0.862,13.938,0,15.001,0h20.18   c1.064,0,1.926,0.862,1.926,1.926v0C37.108,2.99,36.245,3.852,35.181,3.852z" style="fill:#939598;"/>
	<path d="M49.912,73.254v56.268c0,2.382-1.788,4.316-3.991,4.316H3.991c-2.203,0-3.991-1.934-3.991-4.316V73.254   c0-3.588,0.155-7.167,0.46-10.726h48.988C49.757,66.088,49.912,69.667,49.912,73.254z" style="fill:#939598;"/>
</g>

            </g>
        </g>
    </g>
    
    <!-- ITEM 9 -->
    <g>
        <defs>
            <clipPath id="clip-path-id-crop-item-9">
                
          <rect transform="scale(0.3479399477806788 0.3489874371859296)" x="0.0" y="0.0" width="378.0" height="397.0"/>
        
            </clipPath>
            
            <clipPath id="clip-path-id-viewbox-item-9">
                <rect x="0.0" y="0.0" width="133.261" height="138.897"/>
            </clipPath>
        </defs>
        <g clip-path="url(#clip-path-id-crop-item-9)" transform="translate(659.0 712.0) rotate(0.0 191.5 199.0) scale(2.874059177103579 2.8654326587327303)">
            <g clip-path="url(#clip-path-id-viewbox-item-9)" transform="translate(-0.0 -0.0)">
                

<g>
	<g>
		<path d="M130.058,132.058c-2.321-2.543-5.223-4.472-8.418-5.698c-0.902-7.62-2.987-14.99-6.227-21.927    c1.984-3.426,2.175-7.567,2.154-11.466c-0.033-5.183-0.114-10.363-0.256-15.542c-0.285-10.281-0.919-20.57-2.52-30.736    c-0.719-4.542-1.642-9.05-2.809-13.498c-0.122-0.482-0.252-0.961-0.382-1.439c0-0.282-0.081-0.572-0.232-0.809    c-0.126-0.458-0.256-0.912-0.386-1.365c-0.48-1.615-3-0.928-2.52,0.699c0.053,0.176,0.102,0.356,0.15,0.536    c-10.775,2.861-22.022,2.829-33.098,3.029c-11.69,0.208-23.648,1.01-35.215-1.067c-6.337-1.136-21.428-6.532-21.534-5.523    c-0.049,0.454-0.098,0.92-0.15,1.398c-0.618,5.743-1.467,13.2-1.837,18.657c-0.394,5.756-1.232,28.623-1.979,34.28    c-0.74,5.629-1.553,11.266-1.707,16.948c-0.167,6.017,0.419,12.1,2.431,17.794c0.065,0.18,0.155,0.331,0.264,0.454    c-1.036,3.753-4.573,6.013-7.211,8.589c-1.325,1.292-3.119,1.895-4.901,4.3C0.835,133.505,0,138.897,0,138.897h133.261    C132.415,135.937,130.883,132.961,130.058,132.058z" style="fill:#939598;"/>
		<path d="M116.381,29.523c-1.634-5.351-1.431-10.861-1.492-16.388c-0.024-2.293-0.126-5.003-1.427-6.982    c-1.333-2.028-6.296-2.51-6.446-2.453c-2.65-0.302-86.998-4.014-88.608-3.679c-1.488,0.307-2.305,1.459-2.451,2.939    c-0.211,2.158-0.175,4.374-0.22,6.545c-0.016,0.711-0.024,1.418-0.032,2.126c-0.142,0.891-0.289,1.782-0.435,2.682    c-0.488,3.045-0.797,6.16-0.195,9.169c0.093,0.466,0.118,0.94,0.171,1.414c0.004,0.057,0.016,0.114,0.028,0.172    c0.455,1.762,1.772,3.005,3.341,3.581c0.289,0.11,0.585,0.192,0.886,0.253c0.837,0.372,1.776,0.58,2.626,0.818    c3.459,0.961,6.967,1.75,10.499,2.387c7.032,1.271,14.157,1.978,21.29,2.338c14.742,0.752,29.594,0.339,44.344,0    c4.121-0.094,8.243-0.319,12.308-1.034c0.431-0.078,0.915-0.143,1.414-0.221c1.293-0.2,2.691-0.486,3.589-1.271    c0.492-0.429,0.748-0.989,0.784-1.553C116.458,30.128,116.478,29.842,116.381,29.523z" style="fill:#939598;"/>
	</g>
	<path d="M112.212,34.089l-46.047,1.666c-2.146,0.078-4.294-0.036-6.419-0.339l-41.13-5.863v-0.904l42.834,5.862   c1.736,0.238,3.489,0.326,5.241,0.265l45.293-1.586L112.212,34.089z" style="fill:#020202;"/>
</g>

            </g>
        </g>
    </g>
    
    <!-- ITEM 10 -->
    <g>
        <defs>
            <clipPath id="clip-path-id-crop-item-10">
                
          <rect transform="scale(0.6354271356783919 0.6353928571428572)" x="0.0" y="0.0" width="199.0" height="196.0"/>
        
            </clipPath>
            
            <clipPath id="clip-path-id-viewbox-item-10">
                <rect x="0.0" y="0.0" width="126.45" height="124.537"/>
            </clipPath>
        </defs>
        <g clip-path="url(#clip-path-id-crop-item-10)" transform="translate(761.0 839.0) rotate(0.0 99.5 98.0) scale(1.5737445630684064 1.5738294643359)">
            <g clip-path="url(#clip-path-id-viewbox-item-10)" transform="translate(-0.0 -0.0)">
                

<g>
	<path d="M25.829,32.427c0,0,14.991-25.419,18.25-27.374c3.259-1.956,7.821-2.607,15.643-1.956   c7.821,0.652,9.777,1.956,9.777,1.956L47.989,46.766L25.829,32.427z" style="fill:#FCBC41;"/>
	<path d="M62.302,23.913L71.799,6.22l22.466,19.689l6.914-3.457c0.852-0.426,1.807,0.356,1.552,1.273   c-1.444,5.205-5.859,20.434-5.859,20.434l-0.675,2.026c-0.362,1.084-2.58,1.567-2.58,1.567s-18.388-1.921-21.097-2.115   c-0.84-0.06-1.164-1.122-0.502-1.643l7.256-5.701L62.302,23.913z" style="fill:#FCBC41;"/>
	<path d="M112.577,56.249c0,0,12.151,26.893,11.873,30.683c-0.278,3.79-2.372,7.896-7.408,13.915   c-5.037,6.019-7.228,6.868-7.228,6.868L88.093,66.112L112.577,56.249z" style="fill:#FCBC41;"/>
	<path d="M98.334,90.584l9.005,17.783l-28.838,7.588l-1.155,7.644c-0.142,0.942-1.331,1.272-1.935,0.536   c-3.424-4.178-13.333-16.556-13.333-16.556l-1.267-1.718c-0.678-0.92,0.205-3.012,0.205-3.012s12.158-13.928,13.876-16.031   c0.533-0.653,1.588-0.306,1.632,0.536l0.483,9.215L98.334,90.584z" style="fill:#FCBC41;"/>
	<path d="M37.961,121.91c0,0-28.088-9.053-30.71-11.804s-4.259-7.059-5.337-14.833s-0.236-9.967-0.236-9.967   l45.415,11.839L37.961,121.91z" style="fill:#FCBC41;"/>
	<path d="M21.675,88.202L2.728,82.83l13.869-26.263l-4.889-5.988c-0.602-0.738-0.049-1.84,0.902-1.793   c5.395,0.268,21.221,1.236,21.221,1.236l2.124,0.214c1.137,0.115,2.095,2.174,2.095,2.174s2.157,18.362,2.562,21.047   c0.126,0.833-0.84,1.382-1.493,0.85l-7.153-5.829L21.675,88.202z" style="fill:#FCBC41;"/>
</g>

            </g>
        </g>
    </g>
    
    <!-- ITEM 11 -->
    <g>
        <defs>
            <clipPath id="clip-path-id-viewbox-item-11">
                <rect x="0.0" y="0.0" width="53.93" height="157.593"/>
            </clipPath>
        </defs>
        <g transform="translate(484.0 130.0) rotate(-22.63403434698851 34.5 103.5) scale(1.2794363063230114 1.3135101178351831)">
            <g clip-path="url(#clip-path-id-viewbox-item-11)" transform="translate(-0.0 -0.0)">
                

<g>
	<path d="M53.754,137.933l-6.14-51.576l2.439-35.404c0.675-9.807-4.874-18.518-13.175-22.433V13.182   c0.589-0.196,1.28-1.545,1.28-2.113l-0.646-0.029l-20.946-0.176h-1.057c0,0.523,0.901,1.866,1.546,2.248v15.503   C8.861,32.573,3.405,41.223,4.075,50.953l2.438,35.404l-6.367,53.481c-0.705,5.922,1.158,11.863,5.118,16.322l1.273,1.434H47.59   C52.359,152.222,54.603,145.066,53.754,137.933z" style="fill:#DCD9D3;"/>
	<polygon points="49.22,62.742 48.891,97.087 5.236,97.087 4.887,62.742  " style="fill:#E23D2C;"/>
	<path d="M29.646,85.449c-1.305,4.59-6.446,7.347-11.482,6.157c-5.036-1.19-8.06-5.876-6.755-10.466   c1.305-4.59,13.404-12.916,13.404-12.916S30.951,80.858,29.646,85.449z" style="fill:#DCD9D3;"/>
	<path d="M42.301,71.94c1.422,2.443,0.402,5.474-2.278,6.77c-2.68,1.296-6.005,0.367-7.427-2.076   c-1.422-2.443,0.184-10.367,0.184-10.367S40.879,69.497,42.301,71.94z" style="fill:#DCD9D3;"/>
	<path d="M34.965,12.113h-16c-3.184,0-5.765-2.581-5.765-5.765V5.765C13.2,2.581,15.781,0,18.965,0h16   c3.184,0,5.765,2.581,5.765,5.765v0.583C40.73,9.532,38.149,12.113,34.965,12.113z" style="fill:#939598;"/>
</g>

            </g>
        </g>
    </g>
    
    <!-- ITEM 12 -->
    <g>
        <defs>
            <clipPath id="clip-path-id-viewbox-item-12">
                <rect x="0.0" y="0.0" width="106.783" height="105.728"/>
            </clipPath>
        </defs>
        <g transform="translate(858.0 86.0) rotate(0.0 71.0 70.0) scale(1.32979968721613 1.3241525423728815)">
            <g clip-path="url(#clip-path-id-viewbox-item-12)" transform="translate(-0.0 -0.0)">
                
<g>
	<g>
		<g>
			<circle style="fill:#FDBC42;" cx="53.095" cy="53.414" r="24.227"/>
		</g>
	</g>
	<g>
		<g>
			<rect x="50.81" y="0" style="fill:#FDBC42;" width="4.57" height="24.582"/>
		</g>
	</g>
	<g>
		<g>
			<rect x="82.201" y="51.129" style="fill:#FDBC42;" width="24.582" height="4.57"/>
		</g>
	</g>
	<g>
		<g>
			<rect x="0" y="51.129" style="fill:#FDBC42;" width="24.582" height="4.57"/>
		</g>
	</g>
	<g>
		<g>
			
				<rect x="23.003" y="18.578" transform="matrix(0.7071 -0.7071 0.7071 0.7071 -11.1359 25.5617)" style="fill:#E33B2B;" width="4.57" height="15.29"/>
		</g>
	</g>
	<g>
		<g>
			
				<rect x="76.57" y="72.145" transform="matrix(0.7071 -0.7071 0.7071 0.7071 -33.324 79.1286)" style="fill:#E33B2B;" width="4.57" height="15.29"/>
		</g>
	</g>
	<g>
		<g>
			
				<rect x="71.209" y="23.938" transform="matrix(0.7071 -0.7071 0.7071 0.7071 4.5535 63.4392)" style="fill:#E33B2B;" width="15.29" height="4.57"/>
		</g>
	</g>
	<g>
		<g>
			
				<rect x="17.642" y="77.505" transform="matrix(0.7071 -0.7071 0.7071 0.7071 -49.0134 41.2511)" style="fill:#E33B2B;" width="15.29" height="4.57"/>
		</g>
	</g>
	<g>
		<g>
			<rect x="50.81" y="81.147" style="fill:#FDBC42;" width="4.57" height="24.582"/>
		</g>
	</g>
</g>

            </g>
        </g>
    </g>
    
    <!-- ITEM 13 -->
    <g>
        <defs>
            <clipPath id="clip-path-id-crop-item-13">
                
          <rect transform="scale(0.890715909090909 0.8947368421052632)" x="0.0" y="0.0" width="88.0" height="37.0"/>
        
            </clipPath>
            
            <clipPath id="clip-path-id-viewbox-item-13">
                <rect x="0.0" y="0.0" width="78.383" height="51.0"/>
            </clipPath>
        </defs>
        <g clip-path="url(#clip-path-id-crop-item-13)" transform="translate(1417.0 246.0) rotate(0.0 44.0 28.5) scale(1.1226924205503745 1.1176470588235294)">
            <g clip-path="url(#clip-path-id-viewbox-item-13)" transform="translate(-0.0 -0.0)">
                
<g>
	<g>
		<path style="fill:#DBD8D3;" d="M68.105,25.537c0-0.012,0.001-0.024,0.001-0.037c0-14.083-11.417-25.5-25.5-25.5    c-8.359,0-15.779,4.022-20.43,10.237c-0.578-0.049-1.16-0.088-1.751-0.088C9.145,10.149,0,19.294,0,30.574S9.145,51,20.426,51    h45.096c7.103,0,12.862-5.758,12.862-12.862C78.383,31.92,73.97,26.733,68.105,25.537z"/>
	</g>
</g>

            </g>
        </g>
    </g>
    
    <!-- ITEM 14 -->
    <g>
        <defs>
            <clipPath id="clip-path-id-crop-item-14">
                
          <rect transform="scale(0.6998482142857142 0.7083333333333334)" x="0.0" y="0.0" width="112.0" height="47.0"/>
        
            </clipPath>
            
            <clipPath id="clip-path-id-viewbox-item-14">
                <rect x="0.0" y="0.0" width="78.383" height="51.0"/>
            </clipPath>
        </defs>
        <g clip-path="url(#clip-path-id-crop-item-14)" transform="translate(1378.0 183.0) rotate(0.0 -56.0 36.0) scale(-1.4288812625186584 1.411764705882353)">
            <g clip-path="url(#clip-path-id-viewbox-item-14)" transform="translate(-0.0 -0.0)">
                
<g>
	<g>
		<path style="fill:#DBD8D3;" d="M68.105,25.537c0-0.012,0.001-0.024,0.001-0.037c0-14.083-11.417-25.5-25.5-25.5    c-8.359,0-15.779,4.022-20.43,10.237c-0.578-0.049-1.16-0.088-1.751-0.088C9.145,10.149,0,19.294,0,30.574S9.145,51,20.426,51    h45.096c7.103,0,12.862-5.758,12.862-12.862C78.383,31.92,73.97,26.733,68.105,25.537z"/>
	</g>
</g>

            </g>
        </g>
    </g>
    
    <!-- ITEM 15 -->
    <g>
        <defs>
            <clipPath id="clip-path-id-viewbox-item-15">
                <rect x="0.0" y="0.0" width="299.46" height="439.934"/>
            </clipPath>
        </defs>
        <g transform="translate(22.0 136.0) rotate(0.0 331.5 486.5) scale(2.2139851733119618 2.211695390672237)">
            <g clip-path="url(#clip-path-id-viewbox-item-15)" transform="translate(-0.0 -0.0)">
                

<g>
	<path d="M281.725,87.205c-6.531,0-11.837,5.19-12.051,11.669c-15.801,2.431-64.289,15.398-74.259,35.65L98.19,97.141   c0,0-5.92,30,23.186,44.866c45.54,23.261,95.671,0.84,95.678,0.837l56.917-34.32c2.098,1.76,4.8,2.824,7.753,2.824   c6.667,0,12.072-5.405,12.072-12.072C293.797,92.61,288.392,87.205,281.725,87.205z" style="fill:#020202;"/>
	<g>
		<polygon points="245.075,417.233 228.875,429.533 138.445,300.663 115.805,268.393 112.075,263.083 134.385,203.023     168.165,268.393   " style="fill:#020202;"/>
		<g>
			<polygon points="124.948,33.677 114.861,66.393 135.59,73.745 135.126,41.881    " style="fill:#939598;"/>
			<circle cx="130.373" cy="24.892" r="14.365" style="fill:#DCD9D3;"/>
			<path d="M141.178,43.29c2.299,0.568,4.702,0.563,6.998-0.014l-1.111-4.007l6.18-0.712l-11.295-22.845l-21.727,9.164     l2.174,13.687l1.943,2.31l3.471-0.708c0,0,0.854,5.672,9.708,11.249c6.001,3.78,13.829,3.305,13.829,3.305l-2.195-7.923     C146.082,46.997,143.106,45.688,141.178,43.29z" style="fill:#DCD9D3;"/>
			
				<rect x="137.151" y="26.469" transform="matrix(0.9282 -0.3722 0.3722 0.9282 -0.1264 54.0234)" width="5.439" height="1.74" style="fill:#020202;"/>
			<path d="M146.399,3.43c-29.835-7.801-51.904-1.509-48.323,47.321h26.843c0-9.854,0.934-23.395,0.934-23.395     C146.399,20.173,146.399,3.43,146.399,3.43z" style="fill:#020202;"/>
			<circle cx="125.226" cy="37.777" r="5.872" style="fill:#DCD9D3;"/>
			<polygon points="137.571,60.773 112.965,59.716 107.71,75.14 137.362,75.14    " style="fill:#E23D2C;"/>
		</g>
		<path d="M222.531,89.665c-1.899,3.199-33.073,23.884-43.448,56.218l22.371,11.076l30.711-66.614L222.531,89.665z" style="fill:#DCD9D3;"/>
		<path d="M90.251,95.373c16.913-35.803,47.132-22.008,47.132-22.008l-0.225,19.337l10.674,11.693    c0,0-0.003,0.005-0.003,0.005c2.629,3.142,4.214,7.186,4.214,11.603c0,9.259-6.956,16.881-15.925,17.957l-1.739,69.065    l-40.411-0.072C93.97,202.954,67.658,143.201,90.251,95.373z" style="fill:#8F241E;"/>
		<path d="M97.736,87.205c0,0-13.087,26.2,11.407,46.661c38.327,32.013,92.303,23.096,92.31,23.096L97.736,87.205z" style="fill:#E23D2C;"/>
		<ellipse cx="232.164" cy="81.366" rx="12.54" ry="11.924" style="fill:#DCD9D3;"/>
		<path d="M140.305,345.383l-119.75,81.65H0.205c0,0,49.06-90.55,104.47-98.08c0,0-16.62-28.54-22.95-60.56    c-4.57-23.12-3.79-48.04,12.45-65.37h40.21l2.72,65.37l1.34,32.27L140.305,345.383z" style="fill:#E23D2C;"/>
		<line x1="94.275" y1="203.026" x2="134.381" y2="203.026" style="fill:none;stroke:#020202;stroke-width:1.0023;stroke-miterlimit:10.0225;"/>
		<polygon points="0.208,427.035 0,439.934 53.517,439.934 20.553,427.035   " style="fill:#8F241E;"/>
		<polygon points="228.871,429.534 236.503,439.934 279.134,407.581 245.077,417.234   " style="fill:#8F241E;"/>
		<path d="M168.165,268.393h-86.44c-4.57-23.12-3.79-48.04,12.45-65.37h40.21L168.165,268.393z" style="fill:#8F241E;"/>
	</g>
</g>

            </g>
        </g>
    </g>
    
    <!-- ITEM 16 -->
    <g>
        <defs>
            <clipPath id="clip-path-id-viewbox-item-16">
                <rect x="0.0" y="0.0" width="55.485" height="49.808"/>
            </clipPath>
        </defs>
        <g transform="translate(576.0 284.0) rotate(-28.38234552703755 -54.0 48.0) scale(-1.9464720194647203 1.9274012206874398)">
            <g clip-path="url(#clip-path-id-viewbox-item-16)" transform="translate(-0.0 -0.0)">
                

<g>
	<path d="M50.562,23.642l-16.882-5.16c0.038-1.617-0.131-3.264-0.551-4.906C30.764,4.331,21.676-1.161,12.83,1.311   C3.983,3.783-1.27,13.282,1.095,22.527s11.453,14.737,20.299,12.265c0.884-0.247,1.722-0.582,2.531-0.963L40.45,46.403   L50.562,23.642z" style="fill:#FCBC41;"/>
	<path d="M55.485,23.494L43.406,49.808l-4.266-2.139c-0.813-0.408-1.156-1.427-0.766-2.276l10.667-23.238   c0.39-0.85,1.365-1.208,2.178-0.8L55.485,23.494z" style="fill:#939598;"/>
</g>

            </g>
        </g>
    </g>
    
    <!-- ITEM 17 -->
    <g>
        <defs>
            <clipPath id="clip-path-id-crop-item-17">
                
          <rect transform="scale(0.7537916666666667 0.7578275862068965)" x="8.0" y="0.0" width="51.0" height="174.0"/>
        
            </clipPath>
            
            <clipPath id="clip-path-id-viewbox-item-17">
                <rect x="0.0" y="0.0" width="54.273" height="131.862"/>
            </clipPath>
        </defs>
        <g clip-path="url(#clip-path-id-crop-item-17)" transform="translate(624.0 197.0) rotate(21.037690975902674 36.0 87.0) scale(1.3266264993643246 1.3195613596032216)">
            <g clip-path="url(#clip-path-id-viewbox-item-17)" transform="translate(-0.0 -0.0)">
                

<polygon points="54.266,41.253 29.755,13.573 29.755,0 24.518,0 24.518,13.815 0.006,41.253 0,41.253 0,131.862   54.273,131.862 54.273,41.253 " style="fill:#DCD9D3;"/>

            </g>
        </g>
    </g>
    
    <!-- ITEM 18 -->
    <g>
        <defs>
            <clipPath id="clip-path-id-viewbox-item-18">
                <rect x="0.0" y="0.0" width="35.505" height="39.636"/>
            </clipPath>
        </defs>
        <g transform="translate(240.0 104.0) rotate(-63.19707448501962 48.0 53.5) scale(2.7038445289395856 2.6995660510646884)">
            <g clip-path="url(#clip-path-id-viewbox-item-18)" transform="translate(-0.0 -0.0)">
                
<g>
	<g>
		<path style="fill:#FDBC42;" d="M30.972,30.223c6.528-7.789,5.505-19.396-2.284-25.924C21.32-1.876,10.537-1.296,3.867,5.378    C3.67,5.574,3.478,5.775,3.289,5.982c-0.178,0.195-0.353,0.395-0.525,0.6L0,9.88l35.505,29.756L30.972,30.223z"/>
	</g>
</g>

            </g>
        </g>
    </g>
    
</svg>