<?xml version="1.0" encoding="utf-8"?>
<svg id="master-artboard" viewBox="0 0 1400 980" version="1.1" xmlns="http://www.w3.org/2000/svg" x="0px" y="0px" style="enable-background:new 0 0 1400 980;" width="1400px" height="980px"><defs><style id="ee-google-fonts">@import url(https://fonts.googleapis.com/css?family=Rubik:300,300italic,400,400italic,500,500italic,700,700italic,900,900italic);</style></defs><rect id="ee-background" x="0" y="0" width="1400" height="980" style="fill: white; fill-opacity: 1; pointer-events: none;"/>








































<g transform="matrix(2.545454502105713, 0, 0, 2.545454502105713, -36.11896896165695, -299.0650418600757)"><title>free-landfill-flat-vector-illustration</title><g id="design"><g id="dump_truck" data-name="dump truck"><path d="M 131.83999633789062 311.2200012207031 L 147.00999450683594 310.25 L 147.00999450683594 277.9800109863281 L 131.83999633789062 277.9800109863281 L 131.83999633789062 311.2200012207031 Z" class="cls-7" style="fill: rgb(217, 216, 210); fill-rule: evenodd;"/><path class="cls-8" d="M238,346.21H25.71a7.58,7.58,0,0,1-7.58-7.58V308.31H238a7.58,7.58,0,0,1,7.58,7.58v22.74A7.59,7.59,0,0,1,238,346.21Z" style="fill-rule: evenodd; fill: rgb(66, 65, 58);"/><path class="cls-8" d="M18.13,323.47V278L40.88,232.5c2.49-5,6.79-7.58,15.16-7.58H86.36a15.16,15.16,0,0,1,15.16,15.16v68.23H71.2s-22.74,0-22.74,15.16Z" style="fill-rule: evenodd; fill: rgb(66, 65, 58);"/><path class="cls-9" d="M56,240.08H78.78a7.58,7.58,0,0,1,7.58,7.58V270.4A7.59,7.59,0,0,1,78.78,278H33.3l15.16-30.32C50.31,244,51.85,240.08,56,240.08Z" style="fill-rule: evenodd; fill: rgb(48, 181, 168);"/><path class="cls-10" d="M25.71,323.47H18.13V300.72h7.58a7.58,7.58,0,0,1,7.58,7.58v7.58A7.59,7.59,0,0,1,25.71,323.47Z" style="fill-rule: evenodd; fill: rgb(74, 99, 32);"/><path d="M 109.099998 346.209991 A 30.32 30.32 0 0 1 78.779999 376.529991 A 30.32 30.32 0 0 1 48.459999 346.209991 A 30.32 30.32 0 0 1 78.779999 315.889992 A 30.32 30.32 0 0 1 109.099998 346.209991 Z" class="cls-11" style="fill: rgb(38, 38, 34);"/><path class="cls-12" d="M78.78,331a15.16,15.16,0,1,1-15.16,15.16A15.16,15.16,0,0,1,78.78,331Z" style="fill-rule: evenodd; fill: rgb(142, 141, 124);"/><path d="M 139.42999267578125 235.33999633789062 L 237.97999572753906 280.82000732421875 L 230.39999389648438 311.1400146484375 L 139.42999267578125 288.3999938964844 L 139.42999267578125 235.33999633789062 Z" class="cls-10" style="fill-rule: evenodd; fill: rgb(204, 152, 5);"/><path d="M 230.390007 346.209991 A 30.32 30.32 0 0 1 200.070007 376.529991 A 30.32 30.32 0 0 1 169.750008 346.209991 A 30.32 30.32 0 0 1 200.070007 315.889992 A 30.32 30.32 0 0 1 230.390007 346.209991 Z" class="cls-11" style="fill: rgb(38, 38, 34);"/><path class="cls-12" d="M200.07,331a15.16,15.16,0,1,1-15.16,15.16A15.16,15.16,0,0,1,200.07,331Z" style="fill-rule: evenodd; fill: rgb(142, 141, 124);"/><path d="M 249.2899932861328 268.0400085449219 L 243.60000610351562 265.4599914550781 L 93.94000244140625 197.42999267578125 L 86.36000061035156 212.58999633789062 L 116.68000030517578 227.75 L 116.68000030517578 303.55999755859375 L 176.17999267578125 317.55999755859375 L 245.55999755859375 333.8900146484375 L 259.7099914550781 277.2699890136719 L 260.7200012207031 273.239990234375 L 249.2899932861328 268.0400085449219 Z" class="cls-13" style="fill: rgb(170, 255, 51);"/></g><g id="garbage"><path class="cls-14" d="M343.17,346.89s2.42-14.13-3.61-18.38A13.81,13.81,0,0,0,332.1,326a12.38,12.38,0,0,0,1-1.24c5.49-7.78,1-20.41-10.08-28.2-9.88-7-21.62-7.69-27.92-2.21a16.68,16.68,0,0,0-11.22-13.45,16.49,16.49,0,0,0-18.66,5.23l-1.19-.3-15.16,61.08Z" style="fill: rgb(71, 58, 48);"/><path class="cls-15" d="M466.7,272.38s-3.77.79-9.39-1.43a17.55,17.55,0,0,1-8.94-9,25.88,25.88,0,0,1-.78-3.3s-.89,1.79-1.8,3.3-3.58,3.2-5.69,4.11a15.9,15.9,0,0,0-6,4c-5.16,5.59-1.74,11.55.79,13.92l1.48,1.38.17-2A14.89,14.89,0,0,1,442,273.09a10.85,10.85,0,0,0,2.64,5.68,20.34,20.34,0,0,1,3.75,8.38l.38,2.16,1.35-1.72a11.13,11.13,0,0,0,1.6-11.15,13.87,13.87,0,0,0,2.75,1.32c9,3.18,13.28-3.87,13.32-3.94l1.14-1.93Z" style="fill: rgb(61, 50, 42);"/><path class="cls-15" d="M390.6,286.37a7,7,0,0,1,2.94.9,13,13,0,0,1,2.43,2.1l6.77,7.37,6.44-5.92-6.76-7.35a13.42,13.42,0,0,1-1.91-2.62,7,7,0,0,1-.64-3c-.34-4.53-2.48-6.86-4.75-9.33l-18.32-19.93-.79.73-12.63,11.6,18.31,19.92C384,283.32,386.11,285.65,390.6,286.37Z" style="fill: rgb(61, 50, 42);"/><path class="cls-14" d="M321.11,346.89H531.49c2.65-11.39-9.62-18-9.16-19.56a9.57,9.57,0,0,0-6.88-11.64,10,10,0,0,0-2.52-.36,13.42,13.42,0,0,0,1.42-3.24c2.13-7.48-2.52-15.36-10.4-17.61a15.32,15.32,0,0,0-8.74.08,13.74,13.74,0,0,0,.6-1.67c2.9-10.16-6.45-21.74-20.88-25.85-12.9-3.68-25.46-.14-30.06,7.9a18.51,18.51,0,0,0-16.67-10c-8.33,0-15.36,5.19-17.63,12.3-1,.07-1.95.16-2.91.25-5.46-5.4-16.11-7.67-27.41-5.15-13.38,3-23.07,11.69-23.42,20.35l-.78.48a8.51,8.51,0,0,0-12.4,11.6c-.14.2-.29.39-.41.6a14.79,14.79,0,0,0-14.64,14.78C328.6,324.65,334.67,340,321.11,346.89Z" style="fill: rgb(71, 58, 48);"/><path class="cls-16" d="M405,313.28a10.14,10.14,0,0,0-.44-1.66l-.32-.75a4.16,4.16,0,0,0-.43-.7,3.48,3.48,0,0,0-.48-.64l-.57-.57a8.72,8.72,0,0,0-1.28-.89,6,6,0,0,0-1.43-.55l-.74-.17-.75,0-.37,0c.09,0-.22,0-.31,0l-.85.14a2,2,0,0,0-.7.23l-.62.25-1.17.47-.33-1.37c-.17-.71-.31-1.4-.44-2.1l-.81-2-1.15-1.78c-.49-.51-.92-1.08-1.45-1.54a18.7,18.7,0,0,0-1.7-1.23,13.94,13.94,0,0,0-1.89-.91,11.76,11.76,0,0,0-2-.55,17.42,17.42,0,0,0-2-.17,18.19,18.19,0,0,0-2.3.23c-.64.21-1.29.33-2,.58s-1.32.59-1.93,1-1.19.84-1.74,1.32-1,1-1.5,1.63-.86,1.23-1.22,1.9-.61,1.4-.86,2.13-.33,1.51-.5,2.29c0-.78-.05-1.59,0-2.4s.32-1.58.49-2.39a22.67,22.67,0,0,1,1-2.28c.41-.72,1-1.37,1.44-2.06a21.14,21.14,0,0,1,1.84-1.74,25.44,25.44,0,0,1,2.16-1.36,19.6,19.6,0,0,1,2.52-.91,19.27,19.27,0,0,1,2.38-.37,12.78,12.78,0,0,1,2.67.1,14.82,14.82,0,0,1,2.53.63,15.13,15.13,0,0,1,2.36,1.1,20.54,20.54,0,0,1,2.08,1.57c.64.59,1.16,1.29,1.74,1.94s.89,1.48,1.32,2.24.57,1.63.84,2.44.24,1.7.34,2.55l-1.5-.9a11.19,11.19,0,0,1,2-.49l.85-.05a3.09,3.09,0,0,1,.55,0l.48.07,1,.15.9.33a7.76,7.76,0,0,1,1.66.91,6.42,6.42,0,0,1,.7.63,4.1,4.1,0,0,1,.62.69l.52.76a4.25,4.25,0,0,1,.4.82,4.55,4.55,0,0,1,.33.84l.19.89A9.49,9.49,0,0,1,405,313.28Z" style="fill: rgb(82, 67, 55);"/><path class="cls-16" d="M481.64,314.6s-.06-.34-.1-.94a3.48,3.48,0,0,1,.06-1.1,4.27,4.27,0,0,1,.38-1.45,5.18,5.18,0,0,1,.88-1.56,6.62,6.62,0,0,1,3.42-2.42,8.92,8.92,0,0,1,2.26-.4,8.81,8.81,0,0,1,2.21.39,6.89,6.89,0,0,1,2,1,6.71,6.71,0,0,1,1.44,1.44,5.32,5.32,0,0,1,.88,1.56,4.13,4.13,0,0,1,.37,1.43,3.56,3.56,0,0,1,.07,1.12c0,.62-.1,1-.1,1s-.12-.34-.28-.9a3.21,3.21,0,0,0-.39-1,5.53,5.53,0,0,0-.67-1.11,5.87,5.87,0,0,0-1-1.12,8.57,8.57,0,0,0-1.3-1,7.3,7.3,0,0,0-1.53-.6,6.81,6.81,0,0,0-1.76-.26,6.93,6.93,0,0,0-1.71.25,7.18,7.18,0,0,0-1.57.62,8.23,8.23,0,0,0-1.29,1,5.48,5.48,0,0,0-1,1.12,5.56,5.56,0,0,0-.67,1.09,3,3,0,0,0-.39,1C481.76,314.27,481.64,314.6,481.64,314.6Z" style="fill: rgb(82, 67, 55);"/><path class="cls-16" d="M485.91,309l-.44-2a9.43,9.43,0,0,0-.69-1.88,6.81,6.81,0,0,0-1-1.7,6.92,6.92,0,0,0-1.19-1.53,7.92,7.92,0,0,0-1.4-1.32,14.63,14.63,0,0,0-1.55-1.08l-1.7-.82-1.8-.49a10.2,10.2,0,0,0-1.85-.2,6.8,6.8,0,0,0-.85,0l-1,.1a10.45,10.45,0,0,0-1.78.34,17.31,17.31,0,0,0-1.7.64,13.86,13.86,0,0,0-1.57.94,8.21,8.21,0,0,0-1.42,1.16,9.83,9.83,0,0,0-1.23,1.37c-.4.47-.65,1-1,1.54l-.78,1.1-1-.6a10.41,10.41,0,0,0-1.9-.92,9.44,9.44,0,0,0-2.08-.39,9.14,9.14,0,0,0-1.09,0,3.9,3.9,0,0,0-1.13.14,7.6,7.6,0,0,0-2,.68,9.09,9.09,0,0,0-1.88,1.18l-.8.8a3.48,3.48,0,0,0-.73.88l-.65,1L449.3,309a13.11,13.11,0,0,0-.62,2.32,9.67,9.67,0,0,1,.09-2.47l.27-1.23.5-1.17a4.34,4.34,0,0,1,.63-1.12c.25-.35.49-.72.77-1.05a10.71,10.71,0,0,1,2-1.68,8.93,8.93,0,0,1,1.16-.67l1.33-.47a5.39,5.39,0,0,1,1.26-.27A10.65,10.65,0,0,1,458,301a10.54,10.54,0,0,1,2.71.34,12.28,12.28,0,0,1,2.52,1l-1.75.5A16,16,0,0,1,462.7,301a12.34,12.34,0,0,1,1.47-1.72,11.62,11.62,0,0,1,1.73-1.46,12.64,12.64,0,0,1,2-1.13,17.62,17.62,0,0,1,2.15-.77,13.55,13.55,0,0,1,2.26-.38l1-.05a6.94,6.94,0,0,1,1.19.1,12.84,12.84,0,0,1,2.22.37c.71.24,1.43.46,2.12.74l1.91,1.15a15.14,15.14,0,0,1,1.68,1.44,9.13,9.13,0,0,1,1.39,1.69,6.66,6.66,0,0,1,1.07,1.88,7.57,7.57,0,0,1,.71,2,10.38,10.38,0,0,1,.36,2.08Z" style="fill: rgb(82, 67, 55);"/><path class="cls-15" d="M447,249.92a4.56,4.56,0,0,0,1-2.63,2.23,2.23,0,0,0-.84-1.86c-1.16-.86-3-.23-4.27,1.44a7.19,7.19,0,0,0-1,2.35,4.18,4.18,0,0,0-1-1.28h0a2.87,2.87,0,0,0-4,.25,2.35,2.35,0,0,0-.41,1.76,3.35,3.35,0,0,0,1.36,2.14,4.17,4.17,0,0,0,1.52.6,7.08,7.08,0,0,0-2,1.6,4.35,4.35,0,0,0-.93,3.08,2.09,2.09,0,0,0,.81,1.42c1.16.86,3,.23,4.27-1.44h0a7.65,7.65,0,0,0,1-2.61,2,2,0,0,0,.36.35,2,2,0,0,0,2.42-3.28,2,2,0,0,0-.39-.22A7.39,7.39,0,0,0,447,249.92Zm-6.74,6.5c-.77,1-1.74,1.35-2.08,1.11a.59.59,0,0,1-.19-.39,1.66,1.66,0,0,1,0-.21,3.1,3.1,0,0,1,.65-1.71,8.67,8.67,0,0,1,2.57-1.78A8.62,8.62,0,0,1,440.24,256.42Zm5.48-7.43h0a8.64,8.64,0,0,1-2.57,1.78,8.61,8.61,0,0,1,.94-3c.77-1,1.74-1.35,2.07-1.11a.73.73,0,0,1,.21.6A3,3,0,0,1,445.72,249Z" style="fill: rgb(61, 50, 42);"/><path class="cls-17" d="M433.11,245.69a.78.78,0,0,0,1-1.21c-.21-.18-5.14-4.32-1.87-9.61.1-.17,2.26-3.72,8.21-2.69.32.05,7.62,1.13,9.35-3.62a5.18,5.18,0,0,0-.77-5.15c-1.87-2.36-5.71-3.52-10-3a.78.78,0,0,0,.18,1.56c3.71-.44,7.09.51,8.6,2.43a3.61,3.61,0,0,1,.53,3.64c-1.29,3.55-7.56,2.62-7.62,2.61-7.07-1.23-9.7,3.24-9.82,3.43C426.9,240.52,433.05,245.64,433.11,245.69Z" style="fill: rgb(99, 184, 174);"/><path class="cls-17" d="M430.84,196.37s-4.59-5.27-14.94,2.51c0,0,9.76-5.84,16,0,0,0,.48-11.29,12.68-8.38C444.6,190.49,433.32,184.77,430.84,196.37Z" style="fill: rgb(99, 184, 174);"/><path class="cls-17" d="M393.14,219s-1.27-9.71-19.37-8.65c0,0,15.91.75,18.69,12.42,0,0,9.31-12.81,21.29,0C413.75,222.81,405,207.39,393.14,219Z" style="fill: rgb(99, 184, 174);"/></g></g></g></svg>